<mxfile host="app.diagrams.net" agent="Mozilla/5.0 (Windows NT 10.0; Win64; x64) AppleWebKit/537.36 (KHTML, like Gecko) Chrome/127.0.0.0 Safari/537.36" version="24.7.5">
  <diagram id="C5RBs43oDa-KdzZeNtuy" name="Page-1">
    <mxGraphModel dx="2049" dy="1066" grid="1" gridSize="10" guides="1" tooltips="1" connect="1" arrows="1" fold="1" page="1" pageScale="1" pageWidth="827" pageHeight="1169" math="0" shadow="0">
      <root>
        <mxCell id="WIyWlLk6GJQsqaUBKTNV-0" />
        <mxCell id="WIyWlLk6GJQsqaUBKTNV-1" parent="WIyWlLk6GJQsqaUBKTNV-0" />
        <mxCell id="HioqSzKNUCu9lMBX9jTe-11" style="edgeStyle=orthogonalEdgeStyle;rounded=0;orthogonalLoop=1;jettySize=auto;html=1;" edge="1" parent="WIyWlLk6GJQsqaUBKTNV-1" source="HioqSzKNUCu9lMBX9jTe-9" target="HioqSzKNUCu9lMBX9jTe-10">
          <mxGeometry relative="1" as="geometry" />
        </mxCell>
        <mxCell id="HioqSzKNUCu9lMBX9jTe-9" value="Start" style="ellipse;whiteSpace=wrap;html=1;" vertex="1" parent="WIyWlLk6GJQsqaUBKTNV-1">
          <mxGeometry x="70" y="20" width="120" height="50" as="geometry" />
        </mxCell>
        <mxCell id="HioqSzKNUCu9lMBX9jTe-18" style="edgeStyle=orthogonalEdgeStyle;rounded=0;orthogonalLoop=1;jettySize=auto;html=1;entryX=0.5;entryY=0;entryDx=0;entryDy=0;" edge="1" parent="WIyWlLk6GJQsqaUBKTNV-1" source="HioqSzKNUCu9lMBX9jTe-10" target="HioqSzKNUCu9lMBX9jTe-17">
          <mxGeometry relative="1" as="geometry" />
        </mxCell>
        <mxCell id="HioqSzKNUCu9lMBX9jTe-10" value="Enter to the website" style="rounded=0;whiteSpace=wrap;html=1;" vertex="1" parent="WIyWlLk6GJQsqaUBKTNV-1">
          <mxGeometry x="70" y="130" width="120" height="40" as="geometry" />
        </mxCell>
        <mxCell id="HioqSzKNUCu9lMBX9jTe-16" style="edgeStyle=orthogonalEdgeStyle;rounded=0;orthogonalLoop=1;jettySize=auto;html=1;entryX=0;entryY=0.5;entryDx=0;entryDy=0;" edge="1" parent="WIyWlLk6GJQsqaUBKTNV-1" source="HioqSzKNUCu9lMBX9jTe-12" target="HioqSzKNUCu9lMBX9jTe-15">
          <mxGeometry relative="1" as="geometry" />
        </mxCell>
        <mxCell id="HioqSzKNUCu9lMBX9jTe-12" value="Sign-Up" style="rounded=0;whiteSpace=wrap;html=1;" vertex="1" parent="WIyWlLk6GJQsqaUBKTNV-1">
          <mxGeometry x="260" y="250" width="90" height="40" as="geometry" />
        </mxCell>
        <mxCell id="HioqSzKNUCu9lMBX9jTe-21" value="" style="edgeStyle=orthogonalEdgeStyle;rounded=0;orthogonalLoop=1;jettySize=auto;html=1;" edge="1" parent="WIyWlLk6GJQsqaUBKTNV-1" source="HioqSzKNUCu9lMBX9jTe-15" target="HioqSzKNUCu9lMBX9jTe-20">
          <mxGeometry relative="1" as="geometry" />
        </mxCell>
        <mxCell id="HioqSzKNUCu9lMBX9jTe-15" value="Fill Out Information" style="rounded=0;whiteSpace=wrap;html=1;" vertex="1" parent="WIyWlLk6GJQsqaUBKTNV-1">
          <mxGeometry x="404" y="250" width="120" height="40" as="geometry" />
        </mxCell>
        <mxCell id="HioqSzKNUCu9lMBX9jTe-19" value="" style="edgeStyle=orthogonalEdgeStyle;rounded=0;orthogonalLoop=1;jettySize=auto;html=1;" edge="1" parent="WIyWlLk6GJQsqaUBKTNV-1" source="HioqSzKNUCu9lMBX9jTe-25" target="HioqSzKNUCu9lMBX9jTe-12">
          <mxGeometry relative="1" as="geometry" />
        </mxCell>
        <mxCell id="HioqSzKNUCu9lMBX9jTe-24" value="" style="edgeStyle=orthogonalEdgeStyle;rounded=0;orthogonalLoop=1;jettySize=auto;html=1;" edge="1" parent="WIyWlLk6GJQsqaUBKTNV-1" source="HioqSzKNUCu9lMBX9jTe-26" target="HioqSzKNUCu9lMBX9jTe-22">
          <mxGeometry relative="1" as="geometry" />
        </mxCell>
        <mxCell id="HioqSzKNUCu9lMBX9jTe-17" value="Have an account" style="rhombus;whiteSpace=wrap;html=1;" vertex="1" parent="WIyWlLk6GJQsqaUBKTNV-1">
          <mxGeometry x="90" y="230" width="80" height="80" as="geometry" />
        </mxCell>
        <mxCell id="HioqSzKNUCu9lMBX9jTe-23" style="edgeStyle=orthogonalEdgeStyle;rounded=0;orthogonalLoop=1;jettySize=auto;html=1;" edge="1" parent="WIyWlLk6GJQsqaUBKTNV-1" source="HioqSzKNUCu9lMBX9jTe-20" target="HioqSzKNUCu9lMBX9jTe-22">
          <mxGeometry relative="1" as="geometry" />
        </mxCell>
        <mxCell id="HioqSzKNUCu9lMBX9jTe-20" value="Submit" style="rounded=0;whiteSpace=wrap;html=1;" vertex="1" parent="WIyWlLk6GJQsqaUBKTNV-1">
          <mxGeometry x="416" y="365" width="96" height="30" as="geometry" />
        </mxCell>
        <mxCell id="HioqSzKNUCu9lMBX9jTe-30" value="" style="edgeStyle=orthogonalEdgeStyle;rounded=0;orthogonalLoop=1;jettySize=auto;html=1;" edge="1" parent="WIyWlLk6GJQsqaUBKTNV-1" source="HioqSzKNUCu9lMBX9jTe-22" target="HioqSzKNUCu9lMBX9jTe-27">
          <mxGeometry relative="1" as="geometry" />
        </mxCell>
        <mxCell id="HioqSzKNUCu9lMBX9jTe-22" value="Sign-In" style="rounded=0;whiteSpace=wrap;html=1;" vertex="1" parent="WIyWlLk6GJQsqaUBKTNV-1">
          <mxGeometry x="80" y="365" width="100" height="30" as="geometry" />
        </mxCell>
        <mxCell id="HioqSzKNUCu9lMBX9jTe-32" value="" style="edgeStyle=orthogonalEdgeStyle;rounded=0;orthogonalLoop=1;jettySize=auto;html=1;" edge="1" parent="WIyWlLk6GJQsqaUBKTNV-1" source="HioqSzKNUCu9lMBX9jTe-27" target="HioqSzKNUCu9lMBX9jTe-31">
          <mxGeometry relative="1" as="geometry" />
        </mxCell>
        <mxCell id="HioqSzKNUCu9lMBX9jTe-27" value="Enter email and password" style="rounded=0;whiteSpace=wrap;html=1;" vertex="1" parent="WIyWlLk6GJQsqaUBKTNV-1">
          <mxGeometry x="80" y="440" width="100" height="40" as="geometry" />
        </mxCell>
        <mxCell id="HioqSzKNUCu9lMBX9jTe-34" style="edgeStyle=orthogonalEdgeStyle;rounded=0;orthogonalLoop=1;jettySize=auto;html=1;entryX=0;entryY=0.5;entryDx=0;entryDy=0;" edge="1" parent="WIyWlLk6GJQsqaUBKTNV-1" source="HioqSzKNUCu9lMBX9jTe-46" target="HioqSzKNUCu9lMBX9jTe-22">
          <mxGeometry relative="1" as="geometry">
            <mxPoint x="10" y="420" as="targetPoint" />
            <Array as="points">
              <mxPoint x="50" y="380" />
            </Array>
          </mxGeometry>
        </mxCell>
        <mxCell id="HioqSzKNUCu9lMBX9jTe-40" value="" style="edgeStyle=orthogonalEdgeStyle;rounded=0;orthogonalLoop=1;jettySize=auto;html=1;" edge="1" parent="WIyWlLk6GJQsqaUBKTNV-1" source="HioqSzKNUCu9lMBX9jTe-42" target="HioqSzKNUCu9lMBX9jTe-39">
          <mxGeometry relative="1" as="geometry" />
        </mxCell>
        <mxCell id="HioqSzKNUCu9lMBX9jTe-49" style="edgeStyle=orthogonalEdgeStyle;rounded=0;orthogonalLoop=1;jettySize=auto;html=1;" edge="1" parent="WIyWlLk6GJQsqaUBKTNV-1" source="HioqSzKNUCu9lMBX9jTe-31">
          <mxGeometry relative="1" as="geometry">
            <mxPoint x="50" y="510" as="targetPoint" />
          </mxGeometry>
        </mxCell>
        <mxCell id="HioqSzKNUCu9lMBX9jTe-31" value="Email and password valid" style="whiteSpace=wrap;html=1;rounded=0;" vertex="1" parent="WIyWlLk6GJQsqaUBKTNV-1">
          <mxGeometry x="70" y="530" width="120" height="40" as="geometry" />
        </mxCell>
        <mxCell id="HioqSzKNUCu9lMBX9jTe-54" value="" style="edgeStyle=orthogonalEdgeStyle;rounded=0;orthogonalLoop=1;jettySize=auto;html=1;" edge="1" parent="WIyWlLk6GJQsqaUBKTNV-1" source="HioqSzKNUCu9lMBX9jTe-39" target="HioqSzKNUCu9lMBX9jTe-53">
          <mxGeometry relative="1" as="geometry" />
        </mxCell>
        <mxCell id="HioqSzKNUCu9lMBX9jTe-56" value="" style="edgeStyle=orthogonalEdgeStyle;rounded=0;orthogonalLoop=1;jettySize=auto;html=1;" edge="1" parent="WIyWlLk6GJQsqaUBKTNV-1" source="HioqSzKNUCu9lMBX9jTe-39" target="HioqSzKNUCu9lMBX9jTe-55">
          <mxGeometry relative="1" as="geometry" />
        </mxCell>
        <mxCell id="HioqSzKNUCu9lMBX9jTe-59" value="" style="edgeStyle=orthogonalEdgeStyle;rounded=0;orthogonalLoop=1;jettySize=auto;html=1;" edge="1" parent="WIyWlLk6GJQsqaUBKTNV-1" source="HioqSzKNUCu9lMBX9jTe-39" target="HioqSzKNUCu9lMBX9jTe-58">
          <mxGeometry relative="1" as="geometry" />
        </mxCell>
        <mxCell id="HioqSzKNUCu9lMBX9jTe-39" value="" style="triangle;whiteSpace=wrap;html=1;rounded=0;rotation=90;" vertex="1" parent="WIyWlLk6GJQsqaUBKTNV-1">
          <mxGeometry x="296" y="560" width="110" height="150" as="geometry" />
        </mxCell>
        <mxCell id="HioqSzKNUCu9lMBX9jTe-41" value="Logged into system" style="text;html=1;align=center;verticalAlign=middle;resizable=0;points=[];autosize=1;strokeColor=none;fillColor=none;" vertex="1" parent="WIyWlLk6GJQsqaUBKTNV-1">
          <mxGeometry x="286" y="580" width="130" height="30" as="geometry" />
        </mxCell>
        <mxCell id="HioqSzKNUCu9lMBX9jTe-43" value="" style="edgeStyle=orthogonalEdgeStyle;rounded=0;orthogonalLoop=1;jettySize=auto;html=1;" edge="1" parent="WIyWlLk6GJQsqaUBKTNV-1" source="HioqSzKNUCu9lMBX9jTe-31" target="HioqSzKNUCu9lMBX9jTe-42">
          <mxGeometry relative="1" as="geometry">
            <mxPoint x="190" y="550" as="sourcePoint" />
            <mxPoint x="351" y="580" as="targetPoint" />
          </mxGeometry>
        </mxCell>
        <mxCell id="HioqSzKNUCu9lMBX9jTe-42" value="Yes" style="text;html=1;align=center;verticalAlign=middle;resizable=0;points=[];autosize=1;strokeColor=none;fillColor=none;" vertex="1" parent="WIyWlLk6GJQsqaUBKTNV-1">
          <mxGeometry x="220" y="535" width="40" height="30" as="geometry" />
        </mxCell>
        <mxCell id="HioqSzKNUCu9lMBX9jTe-44" value="" style="edgeStyle=orthogonalEdgeStyle;rounded=0;orthogonalLoop=1;jettySize=auto;html=1;" edge="1" parent="WIyWlLk6GJQsqaUBKTNV-1" source="HioqSzKNUCu9lMBX9jTe-17" target="HioqSzKNUCu9lMBX9jTe-26">
          <mxGeometry relative="1" as="geometry">
            <mxPoint x="130" y="310" as="sourcePoint" />
            <mxPoint x="130" y="365" as="targetPoint" />
          </mxGeometry>
        </mxCell>
        <mxCell id="HioqSzKNUCu9lMBX9jTe-26" value="Yes" style="text;html=1;align=center;verticalAlign=middle;resizable=0;points=[];autosize=1;strokeColor=none;fillColor=none;" vertex="1" parent="WIyWlLk6GJQsqaUBKTNV-1">
          <mxGeometry x="110" y="321" width="40" height="30" as="geometry" />
        </mxCell>
        <mxCell id="HioqSzKNUCu9lMBX9jTe-45" value="" style="edgeStyle=orthogonalEdgeStyle;rounded=0;orthogonalLoop=1;jettySize=auto;html=1;" edge="1" parent="WIyWlLk6GJQsqaUBKTNV-1" source="HioqSzKNUCu9lMBX9jTe-17" target="HioqSzKNUCu9lMBX9jTe-25">
          <mxGeometry relative="1" as="geometry">
            <mxPoint x="170" y="270" as="sourcePoint" />
            <mxPoint x="260" y="270" as="targetPoint" />
          </mxGeometry>
        </mxCell>
        <mxCell id="HioqSzKNUCu9lMBX9jTe-25" value="No" style="text;html=1;align=center;verticalAlign=middle;resizable=0;points=[];autosize=1;strokeColor=none;fillColor=none;" vertex="1" parent="WIyWlLk6GJQsqaUBKTNV-1">
          <mxGeometry x="190" y="255" width="40" height="30" as="geometry" />
        </mxCell>
        <mxCell id="HioqSzKNUCu9lMBX9jTe-46" value="No" style="text;html=1;align=center;verticalAlign=middle;resizable=0;points=[];autosize=1;strokeColor=none;fillColor=none;" vertex="1" parent="WIyWlLk6GJQsqaUBKTNV-1">
          <mxGeometry x="30" y="480" width="40" height="30" as="geometry" />
        </mxCell>
        <mxCell id="HioqSzKNUCu9lMBX9jTe-66" value="" style="edgeStyle=orthogonalEdgeStyle;rounded=0;orthogonalLoop=1;jettySize=auto;html=1;" edge="1" parent="WIyWlLk6GJQsqaUBKTNV-1" source="HioqSzKNUCu9lMBX9jTe-53" target="HioqSzKNUCu9lMBX9jTe-65">
          <mxGeometry relative="1" as="geometry" />
        </mxCell>
        <mxCell id="HioqSzKNUCu9lMBX9jTe-53" value="User Dashboard" style="whiteSpace=wrap;html=1;rounded=0;" vertex="1" parent="WIyWlLk6GJQsqaUBKTNV-1">
          <mxGeometry x="291" y="740" width="120" height="60" as="geometry" />
        </mxCell>
        <mxCell id="HioqSzKNUCu9lMBX9jTe-62" value="" style="edgeStyle=orthogonalEdgeStyle;rounded=0;orthogonalLoop=1;jettySize=auto;html=1;" edge="1" parent="WIyWlLk6GJQsqaUBKTNV-1" source="HioqSzKNUCu9lMBX9jTe-55" target="HioqSzKNUCu9lMBX9jTe-61">
          <mxGeometry relative="1" as="geometry" />
        </mxCell>
        <mxCell id="HioqSzKNUCu9lMBX9jTe-55" value="Admin Dashboard" style="whiteSpace=wrap;html=1;rounded=0;" vertex="1" parent="WIyWlLk6GJQsqaUBKTNV-1">
          <mxGeometry x="460" y="605" width="120" height="60" as="geometry" />
        </mxCell>
        <mxCell id="HioqSzKNUCu9lMBX9jTe-70" value="" style="edgeStyle=orthogonalEdgeStyle;rounded=0;orthogonalLoop=1;jettySize=auto;html=1;" edge="1" parent="WIyWlLk6GJQsqaUBKTNV-1" source="HioqSzKNUCu9lMBX9jTe-58" target="HioqSzKNUCu9lMBX9jTe-69">
          <mxGeometry relative="1" as="geometry" />
        </mxCell>
        <mxCell id="HioqSzKNUCu9lMBX9jTe-58" value="Organization Dashboard" style="whiteSpace=wrap;html=1;rounded=0;" vertex="1" parent="WIyWlLk6GJQsqaUBKTNV-1">
          <mxGeometry x="110" y="605" width="120" height="60" as="geometry" />
        </mxCell>
        <mxCell id="HioqSzKNUCu9lMBX9jTe-64" value="" style="edgeStyle=orthogonalEdgeStyle;rounded=0;orthogonalLoop=1;jettySize=auto;html=1;" edge="1" parent="WIyWlLk6GJQsqaUBKTNV-1" source="HioqSzKNUCu9lMBX9jTe-61" target="HioqSzKNUCu9lMBX9jTe-63">
          <mxGeometry relative="1" as="geometry" />
        </mxCell>
        <mxCell id="HioqSzKNUCu9lMBX9jTe-61" value="Will monitor the activities of website" style="whiteSpace=wrap;html=1;rounded=0;" vertex="1" parent="WIyWlLk6GJQsqaUBKTNV-1">
          <mxGeometry x="460" y="745" width="120" height="60" as="geometry" />
        </mxCell>
        <mxCell id="HioqSzKNUCu9lMBX9jTe-63" value="Will debug if any issue occured" style="whiteSpace=wrap;html=1;rounded=0;" vertex="1" parent="WIyWlLk6GJQsqaUBKTNV-1">
          <mxGeometry x="460" y="890" width="120" height="60" as="geometry" />
        </mxCell>
        <mxCell id="HioqSzKNUCu9lMBX9jTe-68" value="" style="edgeStyle=orthogonalEdgeStyle;rounded=0;orthogonalLoop=1;jettySize=auto;html=1;" edge="1" parent="WIyWlLk6GJQsqaUBKTNV-1" source="HioqSzKNUCu9lMBX9jTe-65" target="HioqSzKNUCu9lMBX9jTe-67">
          <mxGeometry relative="1" as="geometry" />
        </mxCell>
        <mxCell id="HioqSzKNUCu9lMBX9jTe-65" value="Can give input about activities nearby" style="whiteSpace=wrap;html=1;rounded=0;" vertex="1" parent="WIyWlLk6GJQsqaUBKTNV-1">
          <mxGeometry x="291" y="880" width="120" height="60" as="geometry" />
        </mxCell>
        <mxCell id="HioqSzKNUCu9lMBX9jTe-73" style="edgeStyle=orthogonalEdgeStyle;rounded=0;orthogonalLoop=1;jettySize=auto;html=1;entryX=1;entryY=0.5;entryDx=0;entryDy=0;" edge="1" parent="WIyWlLk6GJQsqaUBKTNV-1" source="HioqSzKNUCu9lMBX9jTe-67" target="HioqSzKNUCu9lMBX9jTe-69">
          <mxGeometry relative="1" as="geometry" />
        </mxCell>
        <mxCell id="HioqSzKNUCu9lMBX9jTe-67" value="If needed an emergency then can notify the organization" style="whiteSpace=wrap;html=1;rounded=0;" vertex="1" parent="WIyWlLk6GJQsqaUBKTNV-1">
          <mxGeometry x="291" y="1020" width="120" height="60" as="geometry" />
        </mxCell>
        <mxCell id="HioqSzKNUCu9lMBX9jTe-72" value="" style="edgeStyle=orthogonalEdgeStyle;rounded=0;orthogonalLoop=1;jettySize=auto;html=1;" edge="1" parent="WIyWlLk6GJQsqaUBKTNV-1" source="HioqSzKNUCu9lMBX9jTe-69" target="HioqSzKNUCu9lMBX9jTe-71">
          <mxGeometry relative="1" as="geometry" />
        </mxCell>
        <mxCell id="HioqSzKNUCu9lMBX9jTe-69" value="will get the notification of the user" style="whiteSpace=wrap;html=1;rounded=0;" vertex="1" parent="WIyWlLk6GJQsqaUBKTNV-1">
          <mxGeometry x="110" y="745" width="120" height="60" as="geometry" />
        </mxCell>
        <mxCell id="HioqSzKNUCu9lMBX9jTe-71" value="can increase the manpower at place where the accidents are predicted&amp;nbsp;" style="whiteSpace=wrap;html=1;rounded=0;" vertex="1" parent="WIyWlLk6GJQsqaUBKTNV-1">
          <mxGeometry x="110" y="870" width="120" height="60" as="geometry" />
        </mxCell>
      </root>
    </mxGraphModel>
  </diagram>
</mxfile>
